<?xml version="1.0" encoding="utf-8" standalone="no"?>
<!DOCTYPE svg PUBLIC "-//W3C//DTD SVG 1.1//EN"
  "http://www.w3.org/Graphics/SVG/1.1/DTD/svg11.dtd">
<svg xmlns:xlink="http://www.w3.org/1999/xlink" width="576pt" height="360pt" viewBox="0 0 576 360" xmlns="http://www.w3.org/2000/svg" version="1.1">
 <metadata>
  <rdf:RDF xmlns:dc="http://purl.org/dc/elements/1.1/" xmlns:cc="http://creativecommons.org/ns#" xmlns:rdf="http://www.w3.org/1999/02/22-rdf-syntax-ns#">
   <cc:Work>
    <dc:type rdf:resource="http://purl.org/dc/dcmitype/StillImage"/>
    <dc:date>2025-08-29T11:13:27.321477</dc:date>
    <dc:format>image/svg+xml</dc:format>
    <dc:creator>
     <cc:Agent>
      <dc:title>Matplotlib v3.10.3, https://matplotlib.org/</dc:title>
     </cc:Agent>
    </dc:creator>
   </cc:Work>
  </rdf:RDF>
 </metadata>
 <defs>
  <style type="text/css">*{stroke-linejoin: round; stroke-linecap: butt}</style>
 </defs>
 <g id="figure_1">
  <g id="patch_1">
   <path d="M 0 360 
L 576 360 
L 576 0 
L 0 0 
z
" style="fill: #ffffff"/>
  </g>
  <g id="axes_1">
   <g id="patch_2">
    <path d="M 85.644 298.476 
L 557.856 298.476 
L 557.856 18.144 
L 85.644 18.144 
z
" style="fill: #ffffff"/>
   </g>
   <g id="matplotlib.axis_1">
    <g id="xtick_1">
     <g id="text_1">
      <!-- 0 -->
      <g style="fill: #262626" transform="translate(102.82626 318.999031) scale(0.154 -0.154)">
       <defs>
        <path id="ArialMT-30" d="M 266 2259 
Q 266 3072 433 3567 
Q 600 4063 929 4331 
Q 1259 4600 1759 4600 
Q 2128 4600 2406 4451 
Q 2684 4303 2865 4023 
Q 3047 3744 3150 3342 
Q 3253 2941 3253 2259 
Q 3253 1453 3087 958 
Q 2922 463 2592 192 
Q 2263 -78 1759 -78 
Q 1097 -78 719 397 
Q 266 969 266 2259 
z
M 844 2259 
Q 844 1131 1108 757 
Q 1372 384 1759 384 
Q 2147 384 2411 759 
Q 2675 1134 2675 2259 
Q 2675 3391 2411 3762 
Q 2147 4134 1753 4134 
Q 1366 4134 1134 3806 
Q 844 3388 844 2259 
z
" transform="scale(0.015625)"/>
       </defs>
       <use xlink:href="#ArialMT-30"/>
      </g>
     </g>
    </g>
    <g id="xtick_2">
     <g id="text_2">
      <!-- 50 -->
      <g style="fill: #262626" transform="translate(170.330899 318.999031) scale(0.154 -0.154)">
       <defs>
        <path id="ArialMT-35" d="M 266 1200 
L 856 1250 
Q 922 819 1161 601 
Q 1400 384 1738 384 
Q 2144 384 2425 690 
Q 2706 997 2706 1503 
Q 2706 1984 2436 2262 
Q 2166 2541 1728 2541 
Q 1456 2541 1237 2417 
Q 1019 2294 894 2097 
L 366 2166 
L 809 4519 
L 3088 4519 
L 3088 3981 
L 1259 3981 
L 1013 2750 
Q 1425 3038 1878 3038 
Q 2478 3038 2890 2622 
Q 3303 2206 3303 1553 
Q 3303 931 2941 478 
Q 2500 -78 1738 -78 
Q 1113 -78 717 272 
Q 322 622 266 1200 
z
" transform="scale(0.015625)"/>
       </defs>
       <use xlink:href="#ArialMT-35"/>
       <use xlink:href="#ArialMT-30" transform="translate(55.615234 0)"/>
      </g>
     </g>
    </g>
    <g id="xtick_3">
     <g id="text_3">
      <!-- 100 -->
      <g style="fill: #262626" transform="translate(237.835539 318.999031) scale(0.154 -0.154)">
       <defs>
        <path id="ArialMT-31" d="M 2384 0 
L 1822 0 
L 1822 3584 
Q 1619 3391 1289 3197 
Q 959 3003 697 2906 
L 697 3450 
Q 1169 3672 1522 3987 
Q 1875 4303 2022 4600 
L 2384 4600 
L 2384 0 
z
" transform="scale(0.015625)"/>
       </defs>
       <use xlink:href="#ArialMT-31"/>
       <use xlink:href="#ArialMT-30" transform="translate(55.615234 0)"/>
       <use xlink:href="#ArialMT-30" transform="translate(111.230469 0)"/>
      </g>
     </g>
    </g>
    <g id="xtick_4">
     <g id="text_4">
      <!-- 150 -->
      <g style="fill: #262626" transform="translate(309.6221 318.999031) scale(0.154 -0.154)">
       <use xlink:href="#ArialMT-31"/>
       <use xlink:href="#ArialMT-35" transform="translate(55.615234 0)"/>
       <use xlink:href="#ArialMT-30" transform="translate(111.230469 0)"/>
      </g>
     </g>
    </g>
    <g id="xtick_5">
     <g id="text_5">
      <!-- 200 -->
      <g style="fill: #262626" transform="translate(381.408661 318.999031) scale(0.154 -0.154)">
       <defs>
        <path id="ArialMT-32" d="M 3222 541 
L 3222 0 
L 194 0 
Q 188 203 259 391 
Q 375 700 629 1000 
Q 884 1300 1366 1694 
Q 2113 2306 2375 2664 
Q 2638 3022 2638 3341 
Q 2638 3675 2398 3904 
Q 2159 4134 1775 4134 
Q 1369 4134 1125 3890 
Q 881 3647 878 3216 
L 300 3275 
Q 359 3922 746 4261 
Q 1134 4600 1788 4600 
Q 2447 4600 2831 4234 
Q 3216 3869 3216 3328 
Q 3216 3053 3103 2787 
Q 2991 2522 2730 2228 
Q 2469 1934 1863 1422 
Q 1356 997 1212 845 
Q 1069 694 975 541 
L 3222 541 
z
" transform="scale(0.015625)"/>
       </defs>
       <use xlink:href="#ArialMT-32"/>
       <use xlink:href="#ArialMT-30" transform="translate(55.615234 0)"/>
       <use xlink:href="#ArialMT-30" transform="translate(111.230469 0)"/>
      </g>
     </g>
    </g>
    <g id="xtick_6">
     <g id="text_6">
      <!-- 250 -->
      <g style="fill: #262626" transform="translate(453.195223 318.999031) scale(0.154 -0.154)">
       <use xlink:href="#ArialMT-32"/>
       <use xlink:href="#ArialMT-35" transform="translate(55.615234 0)"/>
       <use xlink:href="#ArialMT-30" transform="translate(111.230469 0)"/>
      </g>
     </g>
    </g>
    <g id="xtick_7">
     <g id="text_7">
      <!-- 300 -->
      <g style="fill: #262626" transform="translate(524.981784 318.999031) scale(0.154 -0.154)">
       <defs>
        <path id="ArialMT-33" d="M 269 1209 
L 831 1284 
Q 928 806 1161 595 
Q 1394 384 1728 384 
Q 2125 384 2398 659 
Q 2672 934 2672 1341 
Q 2672 1728 2419 1979 
Q 2166 2231 1775 2231 
Q 1616 2231 1378 2169 
L 1441 2663 
Q 1497 2656 1531 2656 
Q 1891 2656 2178 2843 
Q 2466 3031 2466 3422 
Q 2466 3731 2256 3934 
Q 2047 4138 1716 4138 
Q 1388 4138 1169 3931 
Q 950 3725 888 3313 
L 325 3413 
Q 428 3978 793 4289 
Q 1159 4600 1703 4600 
Q 2078 4600 2393 4439 
Q 2709 4278 2876 4000 
Q 3044 3722 3044 3409 
Q 3044 3113 2884 2869 
Q 2725 2625 2413 2481 
Q 2819 2388 3044 2092 
Q 3269 1797 3269 1353 
Q 3269 753 2831 336 
Q 2394 -81 1725 -81 
Q 1122 -81 723 278 
Q 325 638 269 1209 
z
" transform="scale(0.015625)"/>
       </defs>
       <use xlink:href="#ArialMT-33"/>
       <use xlink:href="#ArialMT-30" transform="translate(55.615234 0)"/>
       <use xlink:href="#ArialMT-30" transform="translate(111.230469 0)"/>
      </g>
     </g>
    </g>
    <g id="text_8">
     <!-- Epoch -->
     <g style="fill: #262626" transform="translate(296.084063 338.084906) scale(0.168 -0.168)">
      <defs>
       <path id="Arial-BoldMT-45" d="M 466 0 
L 466 4581 
L 3863 4581 
L 3863 3806 
L 1391 3806 
L 1391 2791 
L 3691 2791 
L 3691 2019 
L 1391 2019 
L 1391 772 
L 3950 772 
L 3950 0 
L 466 0 
z
" transform="scale(0.015625)"/>
       <path id="Arial-BoldMT-70" d="M 434 3319 
L 1253 3319 
L 1253 2831 
Q 1413 3081 1684 3237 
Q 1956 3394 2288 3394 
Q 2866 3394 3269 2941 
Q 3672 2488 3672 1678 
Q 3672 847 3265 386 
Q 2859 -75 2281 -75 
Q 2006 -75 1782 34 
Q 1559 144 1313 409 
L 1313 -1263 
L 434 -1263 
L 434 3319 
z
M 1303 1716 
Q 1303 1156 1525 889 
Q 1747 622 2066 622 
Q 2372 622 2575 867 
Q 2778 1113 2778 1672 
Q 2778 2194 2568 2447 
Q 2359 2700 2050 2700 
Q 1728 2700 1515 2451 
Q 1303 2203 1303 1716 
z
" transform="scale(0.015625)"/>
       <path id="Arial-BoldMT-6f" d="M 256 1706 
Q 256 2144 472 2553 
Q 688 2963 1083 3178 
Q 1478 3394 1966 3394 
Q 2719 3394 3200 2905 
Q 3681 2416 3681 1669 
Q 3681 916 3195 420 
Q 2709 -75 1972 -75 
Q 1516 -75 1102 131 
Q 688 338 472 736 
Q 256 1134 256 1706 
z
M 1156 1659 
Q 1156 1166 1390 903 
Q 1625 641 1969 641 
Q 2313 641 2545 903 
Q 2778 1166 2778 1666 
Q 2778 2153 2545 2415 
Q 2313 2678 1969 2678 
Q 1625 2678 1390 2415 
Q 1156 2153 1156 1659 
z
" transform="scale(0.015625)"/>
       <path id="Arial-BoldMT-63" d="M 3353 2338 
L 2488 2181 
Q 2444 2441 2289 2572 
Q 2134 2703 1888 2703 
Q 1559 2703 1364 2476 
Q 1169 2250 1169 1719 
Q 1169 1128 1367 884 
Q 1566 641 1900 641 
Q 2150 641 2309 783 
Q 2469 925 2534 1272 
L 3397 1125 
Q 3263 531 2881 228 
Q 2500 -75 1859 -75 
Q 1131 -75 698 384 
Q 266 844 266 1656 
Q 266 2478 700 2936 
Q 1134 3394 1875 3394 
Q 2481 3394 2839 3133 
Q 3197 2872 3353 2338 
z
" transform="scale(0.015625)"/>
       <path id="Arial-BoldMT-68" d="M 1334 4581 
L 1334 2897 
Q 1759 3394 2350 3394 
Q 2653 3394 2897 3281 
Q 3141 3169 3264 2994 
Q 3388 2819 3433 2606 
Q 3478 2394 3478 1947 
L 3478 0 
L 2600 0 
L 2600 1753 
Q 2600 2275 2550 2415 
Q 2500 2556 2373 2639 
Q 2247 2722 2056 2722 
Q 1838 2722 1666 2615 
Q 1494 2509 1414 2295 
Q 1334 2081 1334 1663 
L 1334 0 
L 456 0 
L 456 4581 
L 1334 4581 
z
" transform="scale(0.015625)"/>
      </defs>
      <use xlink:href="#Arial-BoldMT-45"/>
      <use xlink:href="#Arial-BoldMT-70" transform="translate(66.699219 0)"/>
      <use xlink:href="#Arial-BoldMT-6f" transform="translate(127.783203 0)"/>
      <use xlink:href="#Arial-BoldMT-63" transform="translate(188.867188 0)"/>
      <use xlink:href="#Arial-BoldMT-68" transform="translate(244.482422 0)"/>
     </g>
    </g>
   </g>
   <g id="matplotlib.axis_2">
    <g id="ytick_1">
     <g id="text_9">
      <!-- 0.850 -->
      <g style="fill: #262626" transform="translate(37.610313 279.595469) scale(0.154 -0.154)">
       <defs>
        <path id="ArialMT-2e" d="M 581 0 
L 581 641 
L 1222 641 
L 1222 0 
L 581 0 
z
" transform="scale(0.015625)"/>
        <path id="ArialMT-38" d="M 1131 2484 
Q 781 2613 612 2850 
Q 444 3088 444 3419 
Q 444 3919 803 4259 
Q 1163 4600 1759 4600 
Q 2359 4600 2725 4251 
Q 3091 3903 3091 3403 
Q 3091 3084 2923 2848 
Q 2756 2613 2416 2484 
Q 2838 2347 3058 2040 
Q 3278 1734 3278 1309 
Q 3278 722 2862 322 
Q 2447 -78 1769 -78 
Q 1091 -78 675 323 
Q 259 725 259 1325 
Q 259 1772 486 2073 
Q 713 2375 1131 2484 
z
M 1019 3438 
Q 1019 3113 1228 2906 
Q 1438 2700 1772 2700 
Q 2097 2700 2305 2904 
Q 2513 3109 2513 3406 
Q 2513 3716 2298 3927 
Q 2084 4138 1766 4138 
Q 1444 4138 1231 3931 
Q 1019 3725 1019 3438 
z
M 838 1322 
Q 838 1081 952 856 
Q 1066 631 1291 507 
Q 1516 384 1775 384 
Q 2178 384 2440 643 
Q 2703 903 2703 1303 
Q 2703 1709 2433 1975 
Q 2163 2241 1756 2241 
Q 1359 2241 1098 1978 
Q 838 1716 838 1322 
z
" transform="scale(0.015625)"/>
       </defs>
       <use xlink:href="#ArialMT-30"/>
       <use xlink:href="#ArialMT-2e" transform="translate(55.615234 0)"/>
       <use xlink:href="#ArialMT-38" transform="translate(83.398438 0)"/>
       <use xlink:href="#ArialMT-35" transform="translate(139.013672 0)"/>
       <use xlink:href="#ArialMT-30" transform="translate(194.628906 0)"/>
      </g>
     </g>
    </g>
    <g id="ytick_2">
     <g id="text_10">
      <!-- 0.875 -->
      <g style="fill: #262626" transform="translate(37.610313 242.182497) scale(0.154 -0.154)">
       <defs>
        <path id="ArialMT-37" d="M 303 3981 
L 303 4522 
L 3269 4522 
L 3269 4084 
Q 2831 3619 2401 2847 
Q 1972 2075 1738 1259 
Q 1569 684 1522 0 
L 944 0 
Q 953 541 1156 1306 
Q 1359 2072 1739 2783 
Q 2119 3494 2547 3981 
L 303 3981 
z
" transform="scale(0.015625)"/>
       </defs>
       <use xlink:href="#ArialMT-30"/>
       <use xlink:href="#ArialMT-2e" transform="translate(55.615234 0)"/>
       <use xlink:href="#ArialMT-38" transform="translate(83.398438 0)"/>
       <use xlink:href="#ArialMT-37" transform="translate(139.013672 0)"/>
       <use xlink:href="#ArialMT-35" transform="translate(194.628906 0)"/>
      </g>
     </g>
    </g>
    <g id="ytick_3">
     <g id="text_11">
      <!-- 0.900 -->
      <g style="fill: #262626" transform="translate(37.610313 204.769525) scale(0.154 -0.154)">
       <defs>
        <path id="ArialMT-39" d="M 350 1059 
L 891 1109 
Q 959 728 1153 556 
Q 1347 384 1650 384 
Q 1909 384 2104 503 
Q 2300 622 2425 820 
Q 2550 1019 2634 1356 
Q 2719 1694 2719 2044 
Q 2719 2081 2716 2156 
Q 2547 1888 2255 1720 
Q 1963 1553 1622 1553 
Q 1053 1553 659 1965 
Q 266 2378 266 3053 
Q 266 3750 677 4175 
Q 1088 4600 1706 4600 
Q 2153 4600 2523 4359 
Q 2894 4119 3086 3673 
Q 3278 3228 3278 2384 
Q 3278 1506 3087 986 
Q 2897 466 2520 194 
Q 2144 -78 1638 -78 
Q 1100 -78 759 220 
Q 419 519 350 1059 
z
M 2653 3081 
Q 2653 3566 2395 3850 
Q 2138 4134 1775 4134 
Q 1400 4134 1122 3828 
Q 844 3522 844 3034 
Q 844 2597 1108 2323 
Q 1372 2050 1759 2050 
Q 2150 2050 2401 2323 
Q 2653 2597 2653 3081 
z
" transform="scale(0.015625)"/>
       </defs>
       <use xlink:href="#ArialMT-30"/>
       <use xlink:href="#ArialMT-2e" transform="translate(55.615234 0)"/>
       <use xlink:href="#ArialMT-39" transform="translate(83.398438 0)"/>
       <use xlink:href="#ArialMT-30" transform="translate(139.013672 0)"/>
       <use xlink:href="#ArialMT-30" transform="translate(194.628906 0)"/>
      </g>
     </g>
    </g>
    <g id="ytick_4">
     <g id="text_12">
      <!-- 0.925 -->
      <g style="fill: #262626" transform="translate(37.610313 167.356553) scale(0.154 -0.154)">
       <use xlink:href="#ArialMT-30"/>
       <use xlink:href="#ArialMT-2e" transform="translate(55.615234 0)"/>
       <use xlink:href="#ArialMT-39" transform="translate(83.398438 0)"/>
       <use xlink:href="#ArialMT-32" transform="translate(139.013672 0)"/>
       <use xlink:href="#ArialMT-35" transform="translate(194.628906 0)"/>
      </g>
     </g>
    </g>
    <g id="ytick_5">
     <g id="text_13">
      <!-- 0.950 -->
      <g style="fill: #262626" transform="translate(37.610313 129.943582) scale(0.154 -0.154)">
       <use xlink:href="#ArialMT-30"/>
       <use xlink:href="#ArialMT-2e" transform="translate(55.615234 0)"/>
       <use xlink:href="#ArialMT-39" transform="translate(83.398438 0)"/>
       <use xlink:href="#ArialMT-35" transform="translate(139.013672 0)"/>
       <use xlink:href="#ArialMT-30" transform="translate(194.628906 0)"/>
      </g>
     </g>
    </g>
    <g id="ytick_6">
     <g id="text_14">
      <!-- 0.975 -->
      <g style="fill: #262626" transform="translate(37.610313 92.53061) scale(0.154 -0.154)">
       <use xlink:href="#ArialMT-30"/>
       <use xlink:href="#ArialMT-2e" transform="translate(55.615234 0)"/>
       <use xlink:href="#ArialMT-39" transform="translate(83.398438 0)"/>
       <use xlink:href="#ArialMT-37" transform="translate(139.013672 0)"/>
       <use xlink:href="#ArialMT-35" transform="translate(194.628906 0)"/>
      </g>
     </g>
    </g>
    <g id="ytick_7">
     <g id="text_15">
      <!-- 1.000 -->
      <g style="fill: #262626" transform="translate(37.610313 55.117638) scale(0.154 -0.154)">
       <use xlink:href="#ArialMT-31"/>
       <use xlink:href="#ArialMT-2e" transform="translate(55.615234 0)"/>
       <use xlink:href="#ArialMT-30" transform="translate(83.398438 0)"/>
       <use xlink:href="#ArialMT-30" transform="translate(139.013672 0)"/>
       <use xlink:href="#ArialMT-30" transform="translate(194.628906 0)"/>
      </g>
     </g>
    </g>
    <g id="text_16">
     <!-- MSE Loss -->
     <g style="fill: #262626" transform="translate(30.294938 198.450187) rotate(-90) scale(0.168 -0.168)">
      <defs>
       <path id="Arial-BoldMT-4d" d="M 453 0 
L 453 4581 
L 1838 4581 
L 2669 1456 
L 3491 4581 
L 4878 4581 
L 4878 0 
L 4019 0 
L 4019 3606 
L 3109 0 
L 2219 0 
L 1313 3606 
L 1313 0 
L 453 0 
z
" transform="scale(0.015625)"/>
       <path id="Arial-BoldMT-53" d="M 231 1491 
L 1131 1578 
Q 1213 1125 1461 912 
Q 1709 700 2131 700 
Q 2578 700 2804 889 
Q 3031 1078 3031 1331 
Q 3031 1494 2936 1608 
Q 2841 1722 2603 1806 
Q 2441 1863 1863 2006 
Q 1119 2191 819 2459 
Q 397 2838 397 3381 
Q 397 3731 595 4036 
Q 794 4341 1167 4500 
Q 1541 4659 2069 4659 
Q 2931 4659 3367 4281 
Q 3803 3903 3825 3272 
L 2900 3231 
Q 2841 3584 2645 3739 
Q 2450 3894 2059 3894 
Q 1656 3894 1428 3728 
Q 1281 3622 1281 3444 
Q 1281 3281 1419 3166 
Q 1594 3019 2269 2859 
Q 2944 2700 3267 2529 
Q 3591 2359 3773 2064 
Q 3956 1769 3956 1334 
Q 3956 941 3737 597 
Q 3519 253 3119 86 
Q 2719 -81 2122 -81 
Q 1253 -81 787 320 
Q 322 722 231 1491 
z
" transform="scale(0.015625)"/>
       <path id="Arial-BoldMT-20" transform="scale(0.015625)"/>
       <path id="Arial-BoldMT-4c" d="M 491 0 
L 491 4544 
L 1416 4544 
L 1416 772 
L 3716 772 
L 3716 0 
L 491 0 
z
" transform="scale(0.015625)"/>
       <path id="Arial-BoldMT-73" d="M 150 947 
L 1031 1081 
Q 1088 825 1259 692 
Q 1431 559 1741 559 
Q 2081 559 2253 684 
Q 2369 772 2369 919 
Q 2369 1019 2306 1084 
Q 2241 1147 2013 1200 
Q 950 1434 666 1628 
Q 272 1897 272 2375 
Q 272 2806 612 3100 
Q 953 3394 1669 3394 
Q 2350 3394 2681 3172 
Q 3013 2950 3138 2516 
L 2309 2363 
Q 2256 2556 2107 2659 
Q 1959 2763 1684 2763 
Q 1338 2763 1188 2666 
Q 1088 2597 1088 2488 
Q 1088 2394 1175 2328 
Q 1294 2241 1995 2081 
Q 2697 1922 2975 1691 
Q 3250 1456 3250 1038 
Q 3250 581 2869 253 
Q 2488 -75 1741 -75 
Q 1063 -75 667 200 
Q 272 475 150 947 
z
" transform="scale(0.015625)"/>
      </defs>
      <use xlink:href="#Arial-BoldMT-4d"/>
      <use xlink:href="#Arial-BoldMT-53" transform="translate(83.300781 0)"/>
      <use xlink:href="#Arial-BoldMT-45" transform="translate(150 0)"/>
      <use xlink:href="#Arial-BoldMT-20" transform="translate(216.699219 0)"/>
      <use xlink:href="#Arial-BoldMT-4c" transform="translate(244.482422 0)"/>
      <use xlink:href="#Arial-BoldMT-6f" transform="translate(305.566406 0)"/>
      <use xlink:href="#Arial-BoldMT-73" transform="translate(366.650391 0)"/>
      <use xlink:href="#Arial-BoldMT-73" transform="translate(422.265625 0)"/>
     </g>
    </g>
   </g>
   <g id="line2d_1"/>
   <g id="line2d_2">
    <path d="M 107.108182 39.317966 
L 108.543913 49.989702 
L 109.979644 42.018848 
L 112.851107 50.989082 
L 114.286838 48.211979 
L 115.722569 44.62664 
L 117.1583 48.764826 
L 118.594032 49.654134 
L 120.029763 52.549226 
L 121.465494 53.661543 
L 122.901225 52.123265 
L 124.336957 45.405451 
L 125.772688 47.80523 
L 127.208419 46.128681 
L 128.64415 51.878524 
L 130.079881 50.198563 
L 131.515613 56.098685 
L 132.951344 48.223988 
L 134.387075 42.415608 
L 135.822806 56.442225 
L 137.258538 51.41889 
L 138.694269 54.620638 
L 140.13 49.765923 
L 141.565731 54.269382 
L 143.001462 53.273793 
L 144.437194 47.22046 
L 145.872925 45.614044 
L 147.308656 50.389918 
L 148.744387 60.930776 
L 150.180119 54.75359 
L 151.61585 56.014291 
L 153.051581 48.017335 
L 154.487312 52.559361 
L 155.923043 59.554116 
L 157.358775 49.447057 
L 158.794506 55.249996 
L 160.230237 56.521401 
L 161.665968 55.578183 
L 164.537431 52.607116 
L 165.973162 63.671999 
L 167.408893 63.095781 
L 168.844625 64.289036 
L 170.280356 64.860716 
L 171.716087 53.471348 
L 173.151818 66.312248 
L 174.587549 64.574519 
L 176.023281 64.251015 
L 177.459012 62.674604 
L 178.894743 57.50284 
L 180.330474 65.400618 
L 181.766206 64.460165 
L 183.201937 64.104248 
L 184.637668 66.859364 
L 186.073399 70.505013 
L 187.50913 69.631851 
L 188.944862 65.066878 
L 190.380593 76.201426 
L 191.816324 72.876861 
L 193.252055 72.544682 
L 194.687787 66.650815 
L 196.123518 71.619906 
L 197.559249 78.291336 
L 198.99498 72.87472 
L 200.430711 77.500705 
L 201.866443 81.359329 
L 203.302174 83.979709 
L 204.737905 90.583916 
L 206.173636 87.223426 
L 207.609368 88.397291 
L 209.045099 87.703977 
L 210.48083 88.969795 
L 211.916561 84.612624 
L 213.352292 93.144844 
L 214.788024 92.940187 
L 216.223755 86.875247 
L 217.659486 93.867872 
L 219.095217 95.974262 
L 220.530949 97.86257 
L 221.96668 104.101572 
L 223.402411 97.675218 
L 224.838142 103.022136 
L 226.273874 103.666992 
L 227.709605 108.30406 
L 229.145336 110.896376 
L 230.581067 118.087871 
L 232.016798 112.704181 
L 233.45253 106.566588 
L 234.888261 116.102793 
L 236.323992 118.615419 
L 237.759723 114.938572 
L 239.195455 112.266558 
L 240.631186 107.066563 
L 242.066917 120.429581 
L 243.502648 126.447189 
L 244.938379 122.063079 
L 246.374111 125.832092 
L 247.809842 127.288775 
L 249.245573 119.443525 
L 250.681304 130.633666 
L 252.117036 123.209527 
L 253.552767 129.516097 
L 254.988498 122.560311 
L 256.424229 125.415887 
L 257.85996 134.913334 
L 259.295692 132.109393 
L 260.731423 141.138778 
L 262.167154 137.571668 
L 263.602885 139.277196 
L 265.038617 133.259688 
L 266.474348 141.372659 
L 267.910079 132.133566 
L 269.34581 138.898354 
L 270.781542 144.404136 
L 272.217273 147.180358 
L 273.653004 144.082606 
L 275.088735 147.848685 
L 276.524466 139.159597 
L 279.395929 154.807649 
L 280.83166 157.680542 
L 282.267391 158.973811 
L 283.703123 147.020368 
L 285.138854 151.641358 
L 286.574585 148.152945 
L 288.010316 151.515553 
L 289.446047 145.488099 
L 290.881779 154.681588 
L 292.31751 160.960284 
L 293.753241 153.558433 
L 295.188972 160.807541 
L 296.624704 168.91749 
L 298.060435 153.187363 
L 299.496166 160.238827 
L 300.931897 163.820978 
L 303.80336 169.348301 
L 305.239091 169.838965 
L 306.674822 163.342869 
L 308.110553 170.855271 
L 309.546285 162.776764 
L 310.982016 173.637625 
L 312.417747 172.216354 
L 313.853478 172.971116 
L 315.289209 169.127421 
L 316.724941 175.643487 
L 318.160672 169.187932 
L 319.596403 177.136999 
L 321.032134 168.884865 
L 322.467866 170.083327 
L 325.339328 177.925489 
L 326.775059 179.590007 
L 329.646522 183.611877 
L 331.082253 178.587527 
L 332.517984 176.043313 
L 333.953715 176.443451 
L 335.389447 190.241394 
L 336.825178 187.611336 
L 338.260909 180.40093 
L 339.69664 182.231203 
L 341.132372 182.86239 
L 342.568103 176.664933 
L 344.003834 183.489964 
L 345.439565 192.444833 
L 346.875296 185.805504 
L 348.311028 183.40712 
L 349.746759 187.384391 
L 351.18249 189.176776 
L 352.618221 192.343603 
L 354.053953 193.613335 
L 355.489684 194.667349 
L 356.925415 193.146164 
L 358.361146 199.801303 
L 359.796877 186.671665 
L 361.232609 193.167984 
L 362.66834 191.329962 
L 364.104071 201.015208 
L 365.539802 202.202141 
L 366.975534 200.512803 
L 368.411265 197.798775 
L 369.846996 199.210279 
L 371.282727 196.594181 
L 372.718458 196.4785 
L 374.15419 197.668232 
L 375.589921 199.69103 
L 377.025652 199.558491 
L 378.461383 214.855031 
L 379.897115 202.488828 
L 381.332846 201.837404 
L 382.768577 203.627504 
L 384.204308 207.839247 
L 385.64004 206.271454 
L 387.075771 216.156473 
L 388.511502 206.451091 
L 389.947233 206.007558 
L 391.382964 209.082565 
L 392.818696 211.416123 
L 394.254427 210.253018 
L 395.690158 214.085886 
L 397.125889 206.452407 
L 398.561621 214.245854 
L 399.997352 210.652676 
L 401.433083 207.819099 
L 402.868814 218.338906 
L 404.304545 217.826856 
L 405.740277 207.764085 
L 407.176008 219.14072 
L 408.611739 221.461947 
L 410.04747 215.802898 
L 411.483202 216.442313 
L 412.918933 214.995631 
L 414.354664 215.476037 
L 415.790395 216.451478 
L 417.226126 214.542788 
L 418.661858 219.588222 
L 420.097589 221.122152 
L 421.53332 225.194209 
L 422.969051 222.817812 
L 424.404783 222.232017 
L 425.840514 222.079798 
L 427.276245 229.005111 
L 428.711976 222.566414 
L 430.147708 226.088389 
L 431.583439 223.533671 
L 433.01917 221.923164 
L 434.454901 225.243179 
L 435.890632 225.832721 
L 437.326364 223.427769 
L 438.762095 224.841893 
L 440.197826 225.846368 
L 441.633557 225.495402 
L 443.069289 232.131163 
L 444.50502 237.570692 
L 445.940751 226.602635 
L 447.376482 230.286317 
L 448.812213 239.485091 
L 450.247945 227.656627 
L 451.683676 232.495788 
L 453.119407 226.876299 
L 454.555138 234.702237 
L 455.99087 230.502269 
L 457.426601 240.98469 
L 458.862332 236.520089 
L 460.298063 229.106933 
L 461.733794 235.860537 
L 463.169526 235.522014 
L 464.605257 234.766773 
L 466.040988 241.767204 
L 467.476719 239.860799 
L 468.912451 231.756681 
L 470.348182 247.820748 
L 471.783913 243.449004 
L 473.219644 232.931193 
L 474.655375 238.508869 
L 476.091107 229.16877 
L 477.526838 238.736507 
L 480.3983 231.197579 
L 481.834032 236.410875 
L 483.269763 235.141522 
L 484.705494 242.598442 
L 486.141225 233.988017 
L 489.012688 244.289051 
L 490.448419 244.368762 
L 491.88415 237.601934 
L 493.319881 238.2879 
L 494.755613 241.718133 
L 496.191344 243.021437 
L 497.627075 251.370408 
L 499.062806 250.935873 
L 500.498538 231.36184 
L 501.934269 252.59379 
L 503.37 238.579259 
L 504.805731 245.761456 
L 506.241462 246.224591 
L 507.677194 247.907238 
L 509.112925 243.062648 
L 510.548656 243.8466 
L 511.984387 246.233555 
L 513.420119 245.202153 
L 514.85585 246.769421 
L 516.291581 242.933007 
L 517.727312 254.099778 
L 519.163043 251.045131 
L 520.598775 252.77142 
L 522.034506 244.228206 
L 523.470237 246.241449 
L 524.905968 246.854896 
L 526.3417 242.036107 
L 527.777431 256.977008 
L 529.213162 249.295205 
L 530.648893 252.323962 
L 532.084625 250.200022 
L 533.520356 252.87226 
L 534.956087 245.378143 
L 536.391818 252.073634 
L 536.391818 252.073634 
" clip-path="url(#p883d174a49)" style="fill: none; stroke: #dd8452; stroke-opacity: 0.4; stroke-width: 1.5; stroke-linecap: round"/>
   </g>
   <g id="line2d_3">
    <path d="M 107.108182 44.982735 
L 108.543913 38.636549 
L 109.979644 59.372841 
L 111.415375 56.460299 
L 112.851107 39.544422 
L 114.286838 53.915706 
L 115.722569 75.353997 
L 117.1583 52.332594 
L 118.594032 63.891775 
L 120.029763 65.534473 
L 121.465494 35.960743 
L 122.901225 59.565868 
L 124.336957 63.854579 
L 125.772688 53.786188 
L 127.208419 57.585015 
L 128.64415 46.720698 
L 130.079881 46.893388 
L 131.515613 30.886364 
L 132.951344 58.533384 
L 134.387075 43.555365 
L 135.822806 43.873272 
L 137.258538 33.532912 
L 138.694269 63.056868 
L 140.13 51.602228 
L 141.565731 64.16089 
L 143.001462 36.966557 
L 144.437194 54.610927 
L 145.872925 56.88364 
L 147.308656 54.014806 
L 148.744387 52.828632 
L 150.180119 42.546519 
L 151.61585 58.985269 
L 153.051581 51.010479 
L 154.487312 56.46244 
L 155.923043 43.681136 
L 157.358775 64.008627 
L 158.794506 48.509504 
L 160.230237 61.804329 
L 161.665968 67.213474 
L 163.1017 59.081783 
L 164.537431 59.666931 
L 165.973162 55.373671 
L 167.408893 66.994222 
L 168.844625 54.649639 
L 170.280356 83.084113 
L 171.716087 66.592022 
L 173.151818 66.497024 
L 174.587549 67.724231 
L 176.023281 56.693556 
L 177.459012 68.871336 
L 178.894743 63.181391 
L 180.330474 69.436236 
L 181.766206 64.281131 
L 183.201937 63.621412 
L 184.637668 75.111374 
L 186.073399 60.014809 
L 187.50913 83.595672 
L 188.944862 80.257827 
L 190.380593 67.025888 
L 191.816324 87.603672 
L 193.252055 56.402409 
L 194.687787 99.102822 
L 196.123518 60.927141 
L 197.559249 83.012753 
L 198.99498 73.801569 
L 200.430711 80.030636 
L 201.866443 70.860395 
L 203.302174 83.858721 
L 204.737905 101.836608 
L 206.173636 88.962804 
L 207.609368 86.807477 
L 209.045099 109.156941 
L 210.48083 98.425352 
L 211.916561 83.26162 
L 213.352292 119.22444 
L 214.788024 101.091881 
L 216.223755 90.989684 
L 217.659486 86.450323 
L 219.095217 105.88555 
L 220.530949 104.179789 
L 221.96668 89.578102 
L 223.402411 106.038884 
L 224.838142 105.596455 
L 226.273874 104.066059 
L 227.709605 103.513647 
L 229.145336 119.756336 
L 230.581067 115.078181 
L 232.016798 109.932263 
L 233.45253 122.612593 
L 234.888261 103.523548 
L 236.323992 107.77765 
L 237.759723 132.199039 
L 239.195455 105.306021 
L 240.631186 122.246251 
L 242.066917 131.001536 
L 243.502648 123.464894 
L 244.938379 120.646636 
L 246.374111 128.864227 
L 247.809842 135.632505 
L 249.245573 115.652715 
L 250.681304 142.967556 
L 252.117036 147.836777 
L 253.552767 141.509948 
L 254.988498 131.358423 
L 256.424229 124.126665 
L 257.85996 153.90698 
L 259.295692 150.137945 
L 260.731423 145.839066 
L 262.167154 151.993651 
L 263.602885 138.11787 
L 265.038617 155.36441 
L 266.474348 142.864263 
L 267.910079 143.257276 
L 269.34581 150.166578 
L 270.781542 151.527673 
L 272.217273 143.172002 
L 273.653004 149.866957 
L 275.088735 153.51254 
L 276.524466 155.566626 
L 277.960198 169.544986 
L 279.395929 150.817199 
L 280.83166 168.002549 
L 282.267391 143.472247 
L 283.703123 142.540737 
L 285.138854 159.195528 
L 288.010316 169.022545 
L 289.446047 169.36177 
L 290.881779 160.749829 
L 292.31751 160.310521 
L 293.753241 165.097857 
L 295.188972 165.646345 
L 296.624704 139.209136 
L 298.060435 165.8887 
L 299.496166 179.596429 
L 300.931897 168.060439 
L 302.367628 186.965555 
L 303.80336 181.775215 
L 305.239091 169.650063 
L 306.674822 163.673074 
L 308.110553 156.142051 
L 309.546285 189.915381 
L 310.982016 189.522993 
L 312.417747 172.615767 
L 313.853478 175.128963 
L 315.289209 174.751738 
L 316.724941 175.135385 
L 318.160672 201.924217 
L 319.596403 184.743596 
L 321.032134 192.54632 
L 322.467866 180.460772 
L 323.903597 203.353996 
L 325.339328 197.223583 
L 326.775059 163.992943 
L 328.210791 208.836285 
L 329.646522 185.288248 
L 331.082253 201.549312 
L 332.517984 188.615656 
L 333.953715 196.380827 
L 335.389447 162.199409 
L 336.825178 192.972247 
L 338.260909 214.452195 
L 339.69664 206.320414 
L 341.132372 212.006702 
L 342.568103 211.793872 
L 344.003834 196.932169 
L 345.439565 191.419463 
L 346.875296 190.124732 
L 348.311028 209.346238 
L 349.746759 200.448055 
L 351.18249 218.474645 
L 352.618221 223.70218 
L 354.053953 210.308076 
L 355.489684 188.882362 
L 356.925415 217.406392 
L 358.361146 202.814785 
L 359.796877 184.154701 
L 361.232609 216.758982 
L 362.66834 199.312368 
L 364.104071 187.40513 
L 365.539802 231.94778 
L 366.975534 198.258297 
L 368.411265 196.264511 
L 369.846996 221.994724 
L 371.282727 212.315689 
L 372.718458 201.800498 
L 374.15419 181.909728 
L 375.589921 224.287507 
L 377.025652 227.769587 
L 378.461383 221.492977 
L 379.897115 205.999206 
L 381.332846 218.201695 
L 382.768577 233.707864 
L 384.204308 198.705365 
L 385.64004 215.432229 
L 387.075771 214.32794 
L 389.947233 211.424497 
L 391.382964 215.616872 
L 392.818696 217.722426 
L 394.254427 225.269237 
L 395.690158 220.161853 
L 397.125889 217.432617 
L 398.561621 205.998582 
L 399.997352 195.71192 
L 401.433083 219.114205 
L 402.868814 206.500507 
L 404.304545 207.663579 
L 405.740277 234.514405 
L 407.176008 230.700949 
L 408.611739 225.202159 
L 410.04747 217.990203 
L 411.483202 216.321013 
L 412.918933 199.763717 
L 414.354664 235.162172 
L 415.790395 266.205106 
L 417.226126 218.006526 
L 418.661858 258.618691 
L 420.097589 235.45992 
L 421.53332 241.334776 
L 424.404783 203.600008 
L 425.840514 247.284381 
L 427.276245 200.539485 
L 428.711976 230.845453 
L 430.147708 251.791719 
L 431.583439 244.818996 
L 433.01917 226.119932 
L 434.454901 249.345335 
L 435.890632 233.525808 
L 437.326364 246.303097 
L 438.762095 271.04507 
L 440.197826 241.655715 
L 441.633557 243.903007 
L 443.069289 228.964146 
L 444.50502 253.791215 
L 445.940751 248.487949 
L 447.376482 247.355651 
L 448.812213 252.834372 
L 450.247945 268.245187 
L 451.683676 229.981823 
L 453.119407 253.007954 
L 454.555138 229.835358 
L 455.99087 237.842259 
L 457.426601 220.29476 
L 458.862332 266.34729 
L 460.298063 249.094506 
L 461.733794 240.855239 
L 463.169526 262.112902 
L 464.605257 264.314523 
L 466.040988 249.951891 
L 467.476719 260.760905 
L 468.912451 233.108979 
L 470.348182 236.778645 
L 471.783913 257.161974 
L 473.219644 252.920717 
L 474.655375 268.107374 
L 476.091107 270.560716 
L 477.526838 245.006048 
L 478.962569 240.101682 
L 480.3983 274.733825 
L 483.269763 250.19496 
L 484.705494 267.297175 
L 486.141225 272.096731 
L 487.576957 261.211363 
L 489.012688 245.677898 
L 491.88415 263.923562 
L 493.319881 262.91757 
L 494.755613 239.724368 
L 496.191344 256.751835 
L 497.627075 285.733636 
L 499.062806 275.463922 
L 500.498538 267.873315 
L 501.934269 265.258967 
L 503.37 267.266134 
L 504.805731 254.00342 
L 506.241462 251.987512 
L 507.677194 267.410012 
L 509.112925 270.488197 
L 510.548656 245.248135 
L 511.984387 251.221289 
L 513.420119 276.705222 
L 514.85585 260.296711 
L 516.291581 259.082795 
L 517.727312 268.946027 
L 519.163043 255.640231 
L 520.598775 262.238227 
L 522.034506 270.436551 
L 523.470237 276.764183 
L 524.905968 272.36656 
L 526.3417 263.627776 
L 527.777431 253.707724 
L 529.213162 256.530352 
L 530.648893 254.105554 
L 532.084625 285.202007 
L 533.520356 269.894218 
L 534.956087 262.142427 
L 536.391818 285.590204 
L 536.391818 285.590204 
" clip-path="url(#p883d174a49)" style="fill: none; stroke: #55a868; stroke-opacity: 0.4; stroke-width: 1.5; stroke-linecap: round"/>
   </g>
   <g id="line2d_4">
    <path d="M 107.108182 44.196509 
L 108.543913 44.736117 
L 112.851107 47.232074 
L 115.722569 48.283961 
L 120.029763 50.415076 
L 121.465494 50.487461 
L 122.901225 50.009567 
L 124.336957 49.351491 
L 125.772688 49.00181 
L 127.208419 49.193004 
L 130.079881 50.227878 
L 131.515613 50.402318 
L 132.951344 50.40182 
L 134.387075 50.577054 
L 138.694269 52.046068 
L 140.13 52.028347 
L 141.565731 51.642868 
L 143.001462 51.107796 
L 144.437194 50.832629 
L 145.872925 51.20177 
L 148.744387 53.256182 
L 150.180119 53.851419 
L 151.61585 53.878174 
L 153.051581 53.697735 
L 154.487312 53.67576 
L 155.923043 53.88788 
L 160.230237 55.009998 
L 161.665968 55.570322 
L 163.1017 56.489488 
L 164.537431 57.884123 
L 165.973162 59.537367 
L 167.408893 60.961578 
L 168.844625 61.797163 
L 170.280356 62.11976 
L 173.151818 62.557049 
L 174.587549 62.803894 
L 178.894743 62.967307 
L 180.330474 63.516435 
L 181.766206 64.457275 
L 187.50913 69.147477 
L 188.944862 70.133466 
L 190.380593 70.929423 
L 191.816324 71.434355 
L 193.252055 71.748793 
L 194.687787 72.210133 
L 196.123518 73.127766 
L 197.559249 74.573966 
L 198.99498 76.474026 
L 200.430711 78.749666 
L 203.302174 83.700755 
L 204.737905 85.686446 
L 206.173636 86.99883 
L 207.609368 87.713317 
L 210.48083 88.543531 
L 211.916561 89.162474 
L 213.352292 89.991766 
L 214.788024 91.003487 
L 216.223755 92.270084 
L 217.659486 93.897594 
L 221.96668 99.678493 
L 224.838142 103.334692 
L 229.145336 110.024221 
L 230.581067 111.576263 
L 232.016798 112.543202 
L 234.888261 113.771219 
L 236.323992 114.18592 
L 237.759723 114.474961 
L 239.195455 115.027075 
L 240.631186 116.330357 
L 242.066917 118.420622 
L 243.502648 120.762729 
L 244.938379 122.712306 
L 246.374111 123.988844 
L 247.809842 124.7216 
L 250.681304 125.585986 
L 252.117036 126.006154 
L 253.552767 126.601166 
L 254.988498 127.642471 
L 256.424229 129.333387 
L 259.295692 133.848255 
L 260.731423 135.689532 
L 262.167154 136.791563 
L 263.602885 137.242831 
L 265.038617 137.422758 
L 266.474348 137.79961 
L 267.910079 138.718972 
L 269.34581 140.218796 
L 270.781542 141.973613 
L 272.217273 143.517406 
L 276.524466 147.015439 
L 279.395929 151.029639 
L 280.83166 152.460536 
L 282.267391 152.766338 
L 283.703123 152.148422 
L 285.138854 151.265369 
L 286.574585 150.762396 
L 288.010316 151.017651 
L 289.446047 152.117367 
L 290.881779 153.873388 
L 293.753241 157.782871 
L 295.188972 159.249122 
L 296.624704 160.269267 
L 298.060435 161.115736 
L 299.496166 162.19118 
L 303.80336 166.462191 
L 305.239091 167.209427 
L 308.110553 168.158909 
L 309.546285 168.955302 
L 312.417747 170.900845 
L 313.853478 171.581046 
L 315.289209 171.99165 
L 316.724941 172.218501 
L 319.596403 172.424632 
L 321.032134 172.735136 
L 322.467866 173.549753 
L 323.903597 174.96523 
L 326.775059 178.368769 
L 328.210791 179.462521 
L 329.646522 179.936136 
L 331.082253 180.139398 
L 332.517984 180.597471 
L 335.389447 182.55051 
L 336.825178 183.128148 
L 338.260909 183.059323 
L 339.69664 182.692238 
L 341.132372 182.590184 
L 342.568103 183.099387 
L 349.746759 188.202731 
L 354.053953 192.434764 
L 355.489684 193.312018 
L 356.925415 193.669161 
L 359.796877 193.734263 
L 361.232609 194.330842 
L 362.66834 195.595226 
L 364.104071 197.153128 
L 365.539802 198.391753 
L 366.975534 198.927278 
L 368.411265 198.820226 
L 369.846996 198.435389 
L 371.282727 198.196557 
L 372.718458 198.443629 
L 374.15419 199.350945 
L 375.589921 200.826142 
L 377.025652 202.467138 
L 378.461383 203.770456 
L 379.897115 204.534627 
L 381.332846 205.039098 
L 382.768577 205.72626 
L 385.64004 207.773182 
L 387.075771 208.497975 
L 388.511502 208.840581 
L 389.947233 209.062022 
L 391.382964 209.432719 
L 394.254427 210.463988 
L 397.125889 211.047409 
L 398.561621 211.361771 
L 399.997352 211.908198 
L 401.433083 212.712126 
L 405.740277 215.452831 
L 407.176008 216.208468 
L 408.611739 216.684716 
L 410.04747 216.750682 
L 412.918933 216.258055 
L 414.354664 216.289745 
L 415.790395 216.7856 
L 417.226126 217.788547 
L 421.53332 221.863581 
L 422.969051 222.754057 
L 424.404783 223.397351 
L 425.840514 223.914471 
L 427.276245 224.291319 
L 428.711976 224.443478 
L 433.01917 224.2276 
L 434.454901 224.356246 
L 435.890632 224.620862 
L 437.326364 225.045411 
L 438.762095 225.756253 
L 440.197826 226.868786 
L 443.069289 229.74734 
L 444.50502 230.867246 
L 445.940751 231.544708 
L 447.376482 231.851492 
L 448.812213 231.873456 
L 451.683676 231.634754 
L 453.119407 231.926145 
L 454.555138 232.674809 
L 455.99087 233.618855 
L 457.426601 234.354552 
L 458.862332 234.701158 
L 460.298063 234.860982 
L 461.733794 235.198803 
L 463.169526 235.894177 
L 467.476719 238.634697 
L 468.912451 239.218753 
L 470.348182 239.348322 
L 471.783913 238.821302 
L 473.219644 237.727758 
L 474.655375 236.490255 
L 476.091107 235.537557 
L 477.526838 235.028638 
L 478.962569 234.924551 
L 480.3983 235.189065 
L 481.834032 235.807185 
L 484.705494 237.687801 
L 487.576957 239.682174 
L 489.012688 240.421587 
L 490.448419 240.826611 
L 491.88415 241.089256 
L 493.319881 241.620261 
L 494.755613 242.622116 
L 496.191344 243.802606 
L 497.627075 244.604399 
L 499.062806 244.744369 
L 501.934269 244.245009 
L 503.37 244.345309 
L 506.241462 245.031534 
L 507.677194 245.19314 
L 510.548656 245.232366 
L 511.984387 245.456218 
L 513.420119 245.962037 
L 514.85585 246.773859 
L 517.727312 248.701868 
L 519.163043 249.093376 
L 520.598775 248.805579 
L 522.034506 248.126415 
L 523.470237 247.613825 
L 524.905968 247.704445 
L 526.3417 248.433804 
L 527.777431 249.450268 
L 529.213162 250.290707 
L 530.648893 250.68712 
L 532.084625 250.665141 
L 536.391818 250.047394 
L 536.391818 250.047394 
" clip-path="url(#p883d174a49)" style="fill: none; stroke: #c44e52; stroke-width: 2; stroke-linecap: round"/>
   </g>
   <g id="line2d_5">
    <path d="M 107.108182 46.812959 
L 108.543913 47.89168 
L 109.979644 49.590073 
L 111.415375 51.515498 
L 115.722569 57.874585 
L 117.1583 58.760885 
L 118.594032 58.370515 
L 121.465494 56.231717 
L 124.336957 55.3438 
L 125.772688 54.27797 
L 127.208419 52.228945 
L 128.64415 49.647111 
L 130.079881 47.37163 
L 131.515613 45.97908 
L 132.951344 45.471541 
L 134.387075 45.611652 
L 135.822806 46.411032 
L 137.258538 47.977829 
L 138.694269 49.947882 
L 140.13 51.525059 
L 141.565731 52.238523 
L 144.437194 52.397666 
L 145.872925 52.473282 
L 147.308656 52.398082 
L 148.744387 52.173559 
L 150.180119 52.063569 
L 151.61585 52.236064 
L 153.051581 52.625178 
L 154.487312 53.179568 
L 155.923043 54.036423 
L 157.358775 55.345124 
L 160.230237 58.652966 
L 161.665968 59.827696 
L 163.1017 60.424633 
L 164.537431 60.831963 
L 165.973162 61.654112 
L 167.408893 63.184534 
L 168.844625 65.103511 
L 170.280356 66.655072 
L 171.716087 67.212124 
L 173.151818 66.765311 
L 174.587549 65.887554 
L 176.023281 65.242945 
L 177.459012 65.134836 
L 178.894743 65.46219 
L 180.330474 66.018703 
L 181.766206 66.780414 
L 183.201937 67.91527 
L 184.637668 69.551035 
L 187.50913 73.443497 
L 188.944862 74.798814 
L 190.380593 75.499868 
L 193.252055 76.047405 
L 197.559249 76.759865 
L 198.99498 77.471246 
L 200.430711 79.01099 
L 201.866443 81.61599 
L 206.173636 91.855987 
L 207.609368 94.413159 
L 209.045099 96.405815 
L 210.48083 97.92227 
L 211.916561 98.929469 
L 213.352292 99.232956 
L 214.788024 98.774985 
L 216.223755 98.02416 
L 217.659486 97.727038 
L 219.095217 98.211355 
L 220.530949 99.257793 
L 221.96668 100.603752 
L 223.402411 102.224025 
L 224.838142 104.177667 
L 229.145336 111.055204 
L 230.581067 112.585259 
L 232.016798 113.312029 
L 233.45253 113.572602 
L 234.888261 113.981264 
L 236.323992 114.995015 
L 237.759723 116.65679 
L 242.066917 122.839499 
L 246.374111 127.648671 
L 247.809842 129.792362 
L 250.681304 135.0808 
L 252.117036 137.01974 
L 253.552767 138.007409 
L 254.988498 138.762877 
L 256.424229 140.249159 
L 259.295692 144.904778 
L 260.731423 146.413217 
L 262.167154 146.967899 
L 263.602885 146.967102 
L 265.038617 146.843925 
L 266.474348 146.855602 
L 267.910079 147.11611 
L 269.34581 147.640827 
L 270.781542 148.439659 
L 272.217273 149.652439 
L 273.653004 151.449669 
L 276.524466 155.78699 
L 277.960198 156.940255 
L 279.395929 156.763428 
L 280.83166 155.678461 
L 282.267391 154.83362 
L 283.703123 155.379803 
L 285.138854 157.559443 
L 286.574585 160.471325 
L 288.010316 162.80214 
L 289.446047 163.788118 
L 290.881779 163.52145 
L 293.753241 161.566859 
L 295.188972 161.277406 
L 296.624704 162.478681 
L 298.060435 165.419944 
L 299.496166 169.333295 
L 300.931897 172.774051 
L 302.367628 174.518443 
L 303.80336 174.321491 
L 305.239091 173.145708 
L 306.674822 172.573387 
L 308.110553 173.544221 
L 309.546285 175.548509 
L 310.982016 177.295306 
L 312.417747 178.188244 
L 313.853478 178.871642 
L 315.289209 180.341275 
L 316.724941 182.817606 
L 318.160672 185.602856 
L 319.596403 187.873933 
L 321.032134 189.343676 
L 322.467866 190.139318 
L 323.903597 190.419189 
L 325.339328 190.422002 
L 326.775059 190.576965 
L 329.646522 191.595452 
L 331.082253 191.430477 
L 332.517984 190.607648 
L 333.953715 190.157176 
L 335.389447 191.482118 
L 336.825178 195.040481 
L 338.260909 199.666281 
L 339.69664 203.352558 
L 341.132372 204.698611 
L 342.568103 203.723402 
L 344.003834 201.698897 
L 345.439565 200.364819 
L 346.875296 200.927462 
L 348.311028 203.40119 
L 349.746759 206.675351 
L 351.18249 209.194951 
L 352.618221 209.866851 
L 354.053953 208.684425 
L 356.925415 204.420194 
L 358.361146 202.884 
L 359.796877 202.149197 
L 361.232609 202.270812 
L 362.66834 203.139235 
L 365.539802 205.775511 
L 366.975534 206.793317 
L 368.411265 207.367817 
L 369.846996 207.43722 
L 371.282727 207.183232 
L 372.718458 207.392289 
L 374.15419 208.995737 
L 377.025652 214.889091 
L 378.461383 216.72588 
L 379.897115 217.25235 
L 381.332846 216.90368 
L 382.768577 216.030564 
L 384.204308 214.921458 
L 385.64004 214.000172 
L 387.075771 213.631777 
L 388.511502 213.93045 
L 389.947233 214.835514 
L 391.382964 216.114206 
L 392.818696 217.226767 
L 394.254427 217.419281 
L 395.690158 216.209798 
L 398.561621 211.556635 
L 399.997352 210.406528 
L 401.433083 211.128561 
L 402.868814 213.632734 
L 405.740277 220.409256 
L 407.176008 222.178972 
L 408.611739 222.164639 
L 410.04747 221.494212 
L 411.483202 222.079215 
L 412.918933 225.147518 
L 415.790395 235.108528 
L 417.226126 238.168493 
L 418.661858 238.52482 
L 420.097589 236.37479 
L 422.969051 228.648895 
L 424.404783 226.016536 
L 425.840514 225.67049 
L 427.276245 227.683626 
L 430.147708 235.022734 
L 431.583439 237.926479 
L 435.890632 244.154095 
L 437.326364 246.309784 
L 438.762095 247.330693 
L 440.197826 246.863181 
L 441.633557 245.759217 
L 443.069289 245.33274 
L 444.50502 246.184095 
L 447.376482 249.384626 
L 448.812213 249.806571 
L 450.247945 248.6036 
L 451.683676 245.971605 
L 453.119407 242.856276 
L 454.555138 240.57 
L 455.99087 240.185514 
L 457.426601 241.945863 
L 458.862332 245.122371 
L 460.298063 248.594583 
L 461.733794 251.542325 
L 463.169526 253.459736 
L 464.605257 253.889274 
L 466.040988 252.692108 
L 467.476719 250.593043 
L 468.912451 249.079671 
L 470.348182 249.448844 
L 471.783913 251.776528 
L 473.219644 254.806439 
L 474.655375 256.941992 
L 476.091107 257.536948 
L 477.526838 257.313306 
L 478.962569 257.46673 
L 480.3983 258.462118 
L 481.834032 259.875507 
L 483.269763 261.071877 
L 484.705494 261.577276 
L 486.141225 261.098701 
L 489.012688 258.320261 
L 490.448419 257.412585 
L 491.88415 257.295869 
L 493.319881 258.079894 
L 494.755613 260.079302 
L 497.627075 266.472905 
L 499.062806 268.284979 
L 500.498538 267.960928 
L 501.934269 266.00617 
L 503.37 263.548586 
L 504.805731 261.583385 
L 506.241462 260.496424 
L 507.677194 260.017074 
L 509.112925 259.747874 
L 510.548656 259.739858 
L 511.984387 260.282038 
L 514.85585 262.143894 
L 517.727312 263.145635 
L 519.163043 264.051957 
L 522.034506 267.018293 
L 523.470237 267.533887 
L 524.905968 266.524437 
L 526.3417 264.52191 
L 527.777431 262.922899 
L 529.213162 262.980356 
L 530.648893 264.889797 
L 533.520356 270.697651 
L 534.956087 272.914857 
L 536.391818 274.133076 
L 536.391818 274.133076 
" clip-path="url(#p883d174a49)" style="fill: none; stroke: #8172b3; stroke-width: 2; stroke-linecap: round"/>
   </g>
   <g id="patch_3">
    <path d="M 85.644 298.476 
L 85.644 18.144 
" style="fill: none; stroke: #000000; stroke-width: 1.2; stroke-linejoin: miter; stroke-linecap: square"/>
   </g>
   <g id="patch_4">
    <path d="M 557.856 298.476 
L 557.856 18.144 
" style="fill: none; stroke: #000000; stroke-width: 1.2; stroke-linejoin: miter; stroke-linecap: square"/>
   </g>
   <g id="patch_5">
    <path d="M 85.644 298.476 
L 557.856 298.476 
" style="fill: none; stroke: #000000; stroke-width: 1.2; stroke-linejoin: miter; stroke-linecap: square"/>
   </g>
   <g id="patch_6">
    <path d="M 85.644 18.144 
L 557.856 18.144 
" style="fill: none; stroke: #000000; stroke-width: 1.2; stroke-linejoin: miter; stroke-linecap: square"/>
   </g>
   <g id="legend_1">
    <g id="patch_7">
     <path d="M 427.72725 113.7465 
L 549.456 113.7465 
Q 551.856 113.7465 551.856 111.3465 
L 551.856 26.544 
Q 551.856 24.144 549.456 24.144 
L 427.72725 24.144 
Q 425.32725 24.144 425.32725 26.544 
L 425.32725 111.3465 
Q 425.32725 113.7465 427.72725 113.7465 
z
" style="fill: #ffffff; stroke: #000000; stroke-linejoin: miter"/>
    </g>
    <g id="line2d_6">
     <path d="M 430.12725 33.333375 
L 442.12725 33.333375 
L 454.12725 33.333375 
" style="fill: none; stroke: #4c72b0; stroke-opacity: 0; stroke-width: 1.5; stroke-linecap: round"/>
    </g>
    <g id="text_17">
     <!-- ESM-2 -->
     <g style="fill: #262626" transform="translate(463.72725 37.533375) scale(0.12 -0.12)">
      <defs>
       <path id="Arial-BoldMT-2d" d="M 359 1222 
L 359 2100 
L 2084 2100 
L 2084 1222 
L 359 1222 
z
" transform="scale(0.015625)"/>
       <path id="Arial-BoldMT-32" d="M 3238 816 
L 3238 0 
L 159 0 
Q 209 463 459 877 
Q 709 1291 1447 1975 
Q 2041 2528 2175 2725 
Q 2356 2997 2356 3263 
Q 2356 3556 2198 3714 
Q 2041 3872 1763 3872 
Q 1488 3872 1325 3706 
Q 1163 3541 1138 3156 
L 263 3244 
Q 341 3969 753 4284 
Q 1166 4600 1784 4600 
Q 2463 4600 2850 4234 
Q 3238 3869 3238 3325 
Q 3238 3016 3127 2736 
Q 3016 2456 2775 2150 
Q 2616 1947 2200 1565 
Q 1784 1184 1673 1059 
Q 1563 934 1494 816 
L 3238 816 
z
" transform="scale(0.015625)"/>
      </defs>
      <use xlink:href="#Arial-BoldMT-45"/>
      <use xlink:href="#Arial-BoldMT-53" transform="translate(66.699219 0)"/>
      <use xlink:href="#Arial-BoldMT-4d" transform="translate(133.398438 0)"/>
      <use xlink:href="#Arial-BoldMT-2d" transform="translate(216.699219 0)"/>
      <use xlink:href="#Arial-BoldMT-32" transform="translate(250 0)"/>
     </g>
    </g>
    <g id="line2d_7">
     <path d="M 430.12725 50.437125 
L 442.12725 50.437125 
L 454.12725 50.437125 
" style="fill: none; stroke: #dd8452; stroke-opacity: 0.4; stroke-width: 1.5; stroke-linecap: round"/>
    </g>
    <g id="text_18">
     <!-- Train (raw) -->
     <g style="fill: #262626" transform="translate(463.72725 54.637125) scale(0.12 -0.12)">
      <defs>
       <path id="Arial-BoldMT-54" d="M 1497 0 
L 1497 3806 
L 138 3806 
L 138 4581 
L 3778 4581 
L 3778 3806 
L 2422 3806 
L 2422 0 
L 1497 0 
z
" transform="scale(0.015625)"/>
       <path id="Arial-BoldMT-72" d="M 1300 0 
L 422 0 
L 422 3319 
L 1238 3319 
L 1238 2847 
Q 1447 3181 1614 3287 
Q 1781 3394 1994 3394 
Q 2294 3394 2572 3228 
L 2300 2463 
Q 2078 2606 1888 2606 
Q 1703 2606 1575 2504 
Q 1447 2403 1373 2137 
Q 1300 1872 1300 1025 
L 1300 0 
z
" transform="scale(0.015625)"/>
       <path id="Arial-BoldMT-61" d="M 1116 2306 
L 319 2450 
Q 453 2931 781 3162 
Q 1109 3394 1756 3394 
Q 2344 3394 2631 3255 
Q 2919 3116 3036 2902 
Q 3153 2688 3153 2116 
L 3144 1091 
Q 3144 653 3186 445 
Q 3228 238 3344 0 
L 2475 0 
Q 2441 88 2391 259 
Q 2369 338 2359 363 
Q 2134 144 1878 34 
Q 1622 -75 1331 -75 
Q 819 -75 523 203 
Q 228 481 228 906 
Q 228 1188 362 1408 
Q 497 1628 739 1745 
Q 981 1863 1438 1950 
Q 2053 2066 2291 2166 
L 2291 2253 
Q 2291 2506 2166 2614 
Q 2041 2722 1694 2722 
Q 1459 2722 1328 2630 
Q 1197 2538 1116 2306 
z
M 2291 1594 
Q 2122 1538 1756 1459 
Q 1391 1381 1278 1306 
Q 1106 1184 1106 997 
Q 1106 813 1243 678 
Q 1381 544 1594 544 
Q 1831 544 2047 700 
Q 2206 819 2256 991 
Q 2291 1103 2291 1419 
L 2291 1594 
z
" transform="scale(0.015625)"/>
       <path id="Arial-BoldMT-69" d="M 459 3769 
L 459 4581 
L 1338 4581 
L 1338 3769 
L 459 3769 
z
M 459 0 
L 459 3319 
L 1338 3319 
L 1338 0 
L 459 0 
z
" transform="scale(0.015625)"/>
       <path id="Arial-BoldMT-6e" d="M 3478 0 
L 2600 0 
L 2600 1694 
Q 2600 2231 2544 2389 
Q 2488 2547 2361 2634 
Q 2234 2722 2056 2722 
Q 1828 2722 1647 2597 
Q 1466 2472 1398 2265 
Q 1331 2059 1331 1503 
L 1331 0 
L 453 0 
L 453 3319 
L 1269 3319 
L 1269 2831 
Q 1703 3394 2363 3394 
Q 2653 3394 2893 3289 
Q 3134 3184 3257 3021 
Q 3381 2859 3429 2653 
Q 3478 2447 3478 2063 
L 3478 0 
z
" transform="scale(0.015625)"/>
       <path id="Arial-BoldMT-28" d="M 1916 -1347 
L 1313 -1347 
Q 834 -625 584 153 
Q 334 931 334 1659 
Q 334 2563 644 3369 
Q 913 4069 1325 4659 
L 1925 4659 
Q 1497 3713 1336 3048 
Q 1175 2384 1175 1641 
Q 1175 1128 1270 590 
Q 1366 53 1531 -431 
Q 1641 -750 1916 -1347 
z
" transform="scale(0.015625)"/>
       <path id="Arial-BoldMT-77" d="M 1078 0 
L 28 3319 
L 881 3319 
L 1503 1144 
L 2075 3319 
L 2922 3319 
L 3475 1144 
L 4109 3319 
L 4975 3319 
L 3909 0 
L 3066 0 
L 2494 2134 
L 1931 0 
L 1078 0 
z
" transform="scale(0.015625)"/>
       <path id="Arial-BoldMT-29" d="M 216 -1347 
Q 475 -791 581 -494 
Q 688 -197 778 190 
Q 869 578 912 926 
Q 956 1275 956 1641 
Q 956 2384 797 3048 
Q 638 3713 209 4659 
L 806 4659 
Q 1278 3988 1539 3234 
Q 1800 2481 1800 1706 
Q 1800 1053 1594 306 
Q 1359 -531 822 -1347 
L 216 -1347 
z
" transform="scale(0.015625)"/>
      </defs>
      <use xlink:href="#Arial-BoldMT-54"/>
      <use xlink:href="#Arial-BoldMT-72" transform="translate(55.583984 0)"/>
      <use xlink:href="#Arial-BoldMT-61" transform="translate(94.5 0)"/>
      <use xlink:href="#Arial-BoldMT-69" transform="translate(150.115234 0)"/>
      <use xlink:href="#Arial-BoldMT-6e" transform="translate(177.898438 0)"/>
      <use xlink:href="#Arial-BoldMT-20" transform="translate(238.982422 0)"/>
      <use xlink:href="#Arial-BoldMT-28" transform="translate(266.765625 0)"/>
      <use xlink:href="#Arial-BoldMT-72" transform="translate(300.066406 0)"/>
      <use xlink:href="#Arial-BoldMT-61" transform="translate(338.982422 0)"/>
      <use xlink:href="#Arial-BoldMT-77" transform="translate(394.597656 0)"/>
      <use xlink:href="#Arial-BoldMT-29" transform="translate(472.380859 0)"/>
     </g>
    </g>
    <g id="line2d_8">
     <path d="M 430.12725 67.698375 
L 442.12725 67.698375 
L 454.12725 67.698375 
" style="fill: none; stroke: #55a868; stroke-opacity: 0.4; stroke-width: 1.5; stroke-linecap: round"/>
    </g>
    <g id="text_19">
     <!-- Val (raw) -->
     <g style="fill: #262626" transform="translate(463.72725 71.898375) scale(0.12 -0.12)">
      <defs>
       <path id="Arial-BoldMT-56" d="M 1634 0 
L -3 4581 
L 1000 4581 
L 2159 1191 
L 3281 4581 
L 4263 4581 
L 2622 0 
L 1634 0 
z
" transform="scale(0.015625)"/>
       <path id="Arial-BoldMT-6c" d="M 459 0 
L 459 4581 
L 1338 4581 
L 1338 0 
L 459 0 
z
" transform="scale(0.015625)"/>
      </defs>
      <use xlink:href="#Arial-BoldMT-56"/>
      <use xlink:href="#Arial-BoldMT-61" transform="translate(61.199219 0)"/>
      <use xlink:href="#Arial-BoldMT-6c" transform="translate(116.814453 0)"/>
      <use xlink:href="#Arial-BoldMT-20" transform="translate(144.597656 0)"/>
      <use xlink:href="#Arial-BoldMT-28" transform="translate(172.380859 0)"/>
      <use xlink:href="#Arial-BoldMT-72" transform="translate(205.681641 0)"/>
      <use xlink:href="#Arial-BoldMT-61" transform="translate(244.597656 0)"/>
      <use xlink:href="#Arial-BoldMT-77" transform="translate(300.212891 0)"/>
      <use xlink:href="#Arial-BoldMT-29" transform="translate(377.996094 0)"/>
     </g>
    </g>
    <g id="line2d_9">
     <path d="M 430.12725 84.959625 
L 442.12725 84.959625 
L 454.12725 84.959625 
" style="fill: none; stroke: #c44e52; stroke-width: 2; stroke-linecap: round"/>
    </g>
    <g id="text_20">
     <!-- Train (smooth) -->
     <g style="fill: #262626" transform="translate(463.72725 89.159625) scale(0.12 -0.12)">
      <defs>
       <path id="Arial-BoldMT-6d" d="M 394 3319 
L 1203 3319 
L 1203 2866 
Q 1638 3394 2238 3394 
Q 2556 3394 2790 3262 
Q 3025 3131 3175 2866 
Q 3394 3131 3647 3262 
Q 3900 3394 4188 3394 
Q 4553 3394 4806 3245 
Q 5059 3097 5184 2809 
Q 5275 2597 5275 2122 
L 5275 0 
L 4397 0 
L 4397 1897 
Q 4397 2391 4306 2534 
Q 4184 2722 3931 2722 
Q 3747 2722 3584 2609 
Q 3422 2497 3350 2280 
Q 3278 2063 3278 1594 
L 3278 0 
L 2400 0 
L 2400 1819 
Q 2400 2303 2353 2443 
Q 2306 2584 2207 2653 
Q 2109 2722 1941 2722 
Q 1738 2722 1575 2612 
Q 1413 2503 1342 2297 
Q 1272 2091 1272 1613 
L 1272 0 
L 394 0 
L 394 3319 
z
" transform="scale(0.015625)"/>
       <path id="Arial-BoldMT-74" d="M 1981 3319 
L 1981 2619 
L 1381 2619 
L 1381 1281 
Q 1381 875 1398 808 
Q 1416 741 1477 697 
Q 1538 653 1625 653 
Q 1747 653 1978 738 
L 2053 56 
Q 1747 -75 1359 -75 
Q 1122 -75 931 4 
Q 741 84 652 211 
Q 563 338 528 553 
Q 500 706 500 1172 
L 500 2619 
L 97 2619 
L 97 3319 
L 500 3319 
L 500 3978 
L 1381 4491 
L 1381 3319 
L 1981 3319 
z
" transform="scale(0.015625)"/>
      </defs>
      <use xlink:href="#Arial-BoldMT-54"/>
      <use xlink:href="#Arial-BoldMT-72" transform="translate(55.583984 0)"/>
      <use xlink:href="#Arial-BoldMT-61" transform="translate(94.5 0)"/>
      <use xlink:href="#Arial-BoldMT-69" transform="translate(150.115234 0)"/>
      <use xlink:href="#Arial-BoldMT-6e" transform="translate(177.898438 0)"/>
      <use xlink:href="#Arial-BoldMT-20" transform="translate(238.982422 0)"/>
      <use xlink:href="#Arial-BoldMT-28" transform="translate(266.765625 0)"/>
      <use xlink:href="#Arial-BoldMT-73" transform="translate(300.066406 0)"/>
      <use xlink:href="#Arial-BoldMT-6d" transform="translate(355.681641 0)"/>
      <use xlink:href="#Arial-BoldMT-6f" transform="translate(444.597656 0)"/>
      <use xlink:href="#Arial-BoldMT-6f" transform="translate(505.681641 0)"/>
      <use xlink:href="#Arial-BoldMT-74" transform="translate(566.765625 0)"/>
      <use xlink:href="#Arial-BoldMT-68" transform="translate(600.066406 0)"/>
      <use xlink:href="#Arial-BoldMT-29" transform="translate(661.150391 0)"/>
     </g>
    </g>
    <g id="line2d_10">
     <path d="M 430.12725 102.220875 
L 442.12725 102.220875 
L 454.12725 102.220875 
" style="fill: none; stroke: #8172b3; stroke-width: 2; stroke-linecap: round"/>
    </g>
    <g id="text_21">
     <!-- Val (smooth) -->
     <g style="fill: #262626" transform="translate(463.72725 106.420875) scale(0.12 -0.12)">
      <use xlink:href="#Arial-BoldMT-56"/>
      <use xlink:href="#Arial-BoldMT-61" transform="translate(61.199219 0)"/>
      <use xlink:href="#Arial-BoldMT-6c" transform="translate(116.814453 0)"/>
      <use xlink:href="#Arial-BoldMT-20" transform="translate(144.597656 0)"/>
      <use xlink:href="#Arial-BoldMT-28" transform="translate(172.380859 0)"/>
      <use xlink:href="#Arial-BoldMT-73" transform="translate(205.681641 0)"/>
      <use xlink:href="#Arial-BoldMT-6d" transform="translate(261.296875 0)"/>
      <use xlink:href="#Arial-BoldMT-6f" transform="translate(350.212891 0)"/>
      <use xlink:href="#Arial-BoldMT-6f" transform="translate(411.296875 0)"/>
      <use xlink:href="#Arial-BoldMT-74" transform="translate(472.380859 0)"/>
      <use xlink:href="#Arial-BoldMT-68" transform="translate(505.681641 0)"/>
      <use xlink:href="#Arial-BoldMT-29" transform="translate(566.765625 0)"/>
     </g>
    </g>
   </g>
  </g>
 </g>
 <defs>
  <clipPath id="p883d174a49">
   <rect x="85.644" y="18.144" width="472.212" height="280.332"/>
  </clipPath>
 </defs>
</svg>
